<svg width="614" height="601" xmlns="http://www.w3.org/2000/svg" xmlns:xlink="http://www.w3.org/1999/xlink" overflow="hidden">
	<defs>
		<clipPath id="clip0">
			<rect x="509" y="688" width="614" height="601"/>
		</clipPath>
	</defs>
	<g clip-path="url(#clip0)" transform="translate(-509 -688)">
		<path d="M815.965 1289C774.566 1289 734.378 1281.03 696.542 1265.4 659.977 1250.25 627.152 1228.61 598.947 1201.02 570.766 1173.45 548.617 1141.3 533.132 1105.53 517.099 1068.45 509 1029.04 509 988.512 509 947.934 517.111 908.545 533.132 871.462 548.617 835.699 570.766 803.563 598.947 775.98 627.152 748.373 659.977 726.735 696.542 711.588 734.378 695.942 774.566 688 815.965 688 857.423 688 897.61 695.942 935.446 711.588 971.988 726.735 1004.82 748.373 1033.02 775.98 1061.22 803.563 1083.35 835.699 1098.83 871.462 1114.84 908.545 1123 947.934 1123 988.512 1123 1029.04 1114.84 1068.45 1098.83 1105.53 1083.35 1141.3 1061.22 1173.45 1033.02 1201.02 1004.82 1228.61 971.988 1250.25 935.446 1265.4 897.599 1281.03 857.423 1289 815.965 1289L815.965 1289ZM815.965 700.139C653.397 700.139 521.102 829.482 521.102 988.512 521.102 1147.53 653.409 1276.87 815.965 1276.87 978.567 1276.87 1110.88 1147.53 1110.88 988.512 1110.86 829.482 978.567 700.139 815.965 700.139L815.965 700.139Z" fill="#FFFFFF" fill-rule="evenodd"/>
		<path d="M852.002 1208.16C856.239 1207.34 859.326 1205.29 862.001 1209.95 860.488 1212.84 857.901 1216.77 854.476 1218 853.339 1215.68 855.901 1214.61 855.626 1212.62 854.389 1211.14 851.927 1210.81 852.002 1208.16Z" fill="#FFFFFF" fill-rule="evenodd"/>
		<path d="M863.792 1223.52C865.215 1222.11 868.602 1221.91 870.314 1222.62 871.339 1223.86 870.049 1224.36 870.314 1225.36 876.257 1224.42 876.112 1229.13 876.583 1234.23 877.306 1241.83 882.61 1254.51 878.379 1259 873.762 1258.67 867.831 1257.26 865.215 1253.97 868.795 1252.35 872.231 1255.68 875.232 1252.74 874.473 1245.15 873.798 1237.56 871.953 1229.6 869.591 1229.23 866.191 1232.12 864.154 1234.33 864.817 1235.07 866.42 1233.12 867.119 1233.79 867.457 1234.36 867.65 1235.27 868.241 1235.06 868.277 1237.12 867.397 1238.86 865.805 1240.4 867.059 1241.84 869.084 1241.07 870.266 1242.79 871.037 1244.17 869.723 1244.84 870.049 1246.08 867.168 1248.41 863.37 1254.51 859.477 1253.53 859.838 1249.9 865.986 1248.21 865.419 1244.23 863.744 1243.15 862.285 1245.42 861.008 1244.58 859.85 1242.14 862.611 1241.04 862.852 1239.08 861.128 1239.09 860.923 1242.27 860.055 1243.6 858.235 1244.17 856.354 1244.84 855.221 1243.22 857.873 1241.04 861.526 1238.22 863.599 1235.01 859.332 1237.15 856.644 1242.5 850.037 1244.85 849.35 1244.23 848.458 1244.09 848 1242.63 855.088 1237.02 862.611 1231.1 867.168 1225.49 861.441 1225.41 859.802 1232.05 853.57 1233.51 852.34 1231.45 853.991 1228.69 855.848 1226.9 859.669 1223.27 865.842 1218.54 868.289 1214.87 868.168 1213.45 866.963 1215.19 866.818 1213.77 868.361 1212.12 870.422 1210.64 871.833 1209 873.4 1209.61 873.376 1209.33 874.437 1211.37 872.834 1216.81 865.673 1218.46 863.792 1223.52Z" fill="#FFFFFF" fill-rule="evenodd"/>
		<path d="M863 1216C860.343 1219.64 856.652 1221.97 852.781 1224.78 849.379 1229.45 843.8 1232.7 839.244 1236 837.368 1236.09 835.204 1234.34 835 1232.31 835.758 1231.51 837.513 1230.22 838.727 1230.53 839.328 1229.62 840.506 1228.95 841.143 1228.07 848.633 1225.71 855.811 1218.53 863 1216Z" fill="#FFFFFF" fill-rule="evenodd"/>
		<path d="M849.226 1247C854.673 1249.76 853.541 1256.76 850.13 1260 845.587 1257.19 849.817 1251.26 849.226 1247Z" fill="#FFFFFF" fill-rule="evenodd"/>
		<path d="M925.588 1207.63C926.591 1206.96 926.833 1204.35 928.135 1202.6 930.06 1202.2 931.213 1202.49 933 1203.44 931.432 1206.76 928.793 1210.54 926.337 1213.96 927.882 1223.13 927.167 1242.92 913.922 1241.97 917.565 1236.74 922.672 1230.02 921.818 1222.94 920.055 1225.28 919.386 1226.91 917.473 1229.74 915.409 1230.71 911.063 1228.58 909 1226.51 911.063 1224.08 913.599 1222.79 915.398 1220.8 916.85 1219.18 919.628 1216.49 920.412 1214.4 921.392 1211.64 918.544 1202.58 916.735 1198.23 915.778 1195.95 913.818 1194.76 914.233 1191.86 914.464 1191.25 914.879 1191.39 915.109 1191 925.53 1194.27 921.761 1202.19 925.588 1207.63Z" fill="#FFFFFF" fill-rule="evenodd"/>
		<path d="M927 1216.73C927.395 1216.32 927.945 1216.47 928.304 1216 930.6 1216.04 930.995 1218.44 932.394 1219.65 937.177 1223.9 942.081 1224.94 948 1224.85 947.845 1228.38 942.966 1231.58 940.275 1233 934.594 1227.99 930.719 1222.39 927 1216.73Z" fill="#FFFFFF" fill-rule="evenodd"/>
		<path d="M979.049 1200.27C978.922 1199.81 979.049 1199.52 979.359 1199.38 982.066 1194.68 983.77 1187.56 987.525 1183.07 989.344 1180.93 992.523 1177.4 996.001 1178.09 996.818 1181.92 993.387 1182.53 991.44 1184.24 994.435 1187.87 1000.75 1189.05 999.928 1194.37 999.271 1198.91 992.534 1199.66 987.651 1202 989.978 1198.36 995.92 1197.45 996.323 1192.38 994.757 1190.07 993.202 1187.76 990.196 1187.3 985.567 1191.34 987.697 1201.68 979.049 1200.27Z" fill="#FFFFFF" fill-rule="evenodd"/>
		<path d="M975.348 1156.89C975.371 1155.13 974.497 1154.65 973.681 1154.09 967.471 1155.52 974.078 1165.06 967.098 1167.67 964.57 1168.62 960.829 1166.31 959 1170.14 961.785 1171.64 968.578 1172.23 967.366 1175.9 968.834 1175.6 969.895 1175.83 970.454 1176.74 970.163 1178.17 970.582 1180.16 969.3 1180.82 969.207 1179.32 967.867 1179.47 967.669 1178.03 966.236 1178.09 963.789 1177.61 962.67 1178.75 966.154 1180.81 967.926 1185.12 971.782 1186.6 974.765 1183.93 969.778 1178.09 973.658 1175.44 972.912 1173.65 972.435 1170.99 975.126 1170.87 975.767 1173 974.625 1173.79 974.94 1175.66 977.62 1174.69 976.781 1170.98 980.626 1170.93 980.778 1178.57 975.581 1182.02 975.558 1189.5 972.854 1191.69 970.943 1196.24 971.433 1199.72 973.006 1200.62 974.707 1199.14 975.942 1198.59 979.834 1190.15 981.127 1179.71 986.779 1172.66 987.303 1177.31 985.87 1180.1 985.683 1183.24 987.536 1183.2 987.792 1181.89 987.338 1179.96 989.237 1177 991.194 1174.03 990.985 1169.43 990.355 1169.09 989.994 1168.43 989.528 1167.89 988.549 1168.06 987.582 1168.19 986.615 1168.31 985.31 1172.16 982.852 1175.06 980.789 1178.31 982.735 1174.62 982.805 1169.4 986.93 1167.41 985.578 1161.44 990.122 1148.46 981.465 1149.02 979.776 1151.92 975.884 1153.1 975.348 1156.89ZM968.997 1169.14C968.671 1167.84 970.209 1168.06 970.92 1167.57 970.699 1168.5 970.209 1170.1 968.997 1169.14ZM984.005 1164.78C982.817 1164.6 982.828 1162.7 981.966 1162.03 980.638 1162.28 978.727 1162.06 979.24 1163.72 974.497 1160.37 978.878 1155.5 981.978 1152.92 984.949 1156.03 984.541 1159.99 984.005 1164.78Z" fill="#FFFFFF" fill-rule="evenodd"/>
		<path d="M743.996 1203.01C739.906 1203.07 740.749 1205.52 736.931 1206 737.625 1202.96 733.61 1198.32 734.031 1195.19 737.34 1194.08 744.194 1198 743.996 1203.01Z" fill="#FFFFFF" fill-rule="evenodd"/>
		<path d="M745.774 1211.42C733.5 1210.28 718.544 1216.14 710 1205.31 713.67 1202.15 717.448 1205.9 721.619 1204.36 729.293 1207.4 738.505 1206.46 745.81 1210.49 746.108 1210.91 746.025 1211.21 745.774 1211.42Z" fill="#FFFFFF" fill-rule="evenodd"/>
		<path d="M720.048 1229.88C721.828 1230.03 725.507 1228.9 726.91 1227.14 726.78 1224.47 723.714 1225.26 724.115 1224.06 726.874 1223.64 730.352 1221.22 732.946 1221.34 733.877 1213.13 722.512 1216.69 718.079 1217.03 716.9 1216.44 717.643 1214.88 716.263 1214 711.418 1218.06 706.878 1224.79 709.354 1229.5 706.148 1229.66 702.422 1231.15 699.805 1229.59 698.59 1232.18 696.786 1235.7 699.168 1237.74 702.445 1236.96 704.733 1235.62 707.444 1234.85 710.404 1237.44 708.765 1242.48 712.007 1244 716.865 1240.17 716.275 1234.21 720.048 1229.88ZM709.791 1233.75C711.158 1233.25 711.535 1231.87 712.608 1230.43 712.243 1229.08 711.087 1229.77 710.309 1229.58 713.705 1227.83 716.11 1224.29 717.902 1223.05 717.56 1225.28 713.528 1226.74 716.346 1229.19 714.836 1231.27 714.377 1233.81 712.054 1235.63 711.441 1234.64 710.333 1234.99 709.791 1233.75Z" fill="#FFFFFF" fill-rule="evenodd"/>
		<path d="M726.045 1243.8C719.394 1245.53 720.397 1235.47 722.949 1232.03 729.055 1231.41 729.018 1240.92 726.045 1243.8Z" fill="#FFFFFF" fill-rule="evenodd"/>
		<path d="M788.971 1244.07C792.792 1243.48 797.588 1241.69 802.265 1244.53 802.048 1245.21 802.265 1245.7 802.795 1246.01 802.011 1249.36 799.818 1250.34 797.565 1251.33 791.647 1249.33 788.068 1250.57 783.476 1252 775.004 1251.95 772.485 1252.53 764 1247.22 766.326 1242.77 772.846 1245.46 777.257 1244.52 782.042 1240.52 787.284 1237.32 790.418 1230.58 787.152 1229.72 777.498 1232.53 776.775 1226.47 783.705 1224.56 792.37 1225.46 798.396 1222 802.698 1222.94 804.145 1225.43 805 1228.22 799.396 1233.1 793.033 1238.54 788.971 1244.07Z" fill="#FFFFFF" fill-rule="evenodd"/>
		<path d="M655.751 1198.34C656.699 1202.41 662.929 1202.71 668.129 1203.8 668.721 1205.65 669.053 1206.15 668.212 1208.4 661.899 1210.85 652.755 1205.29 649 1201.23 649.805 1194.5 653.311 1192.1 657.481 1188.21 664.717 1181.49 673.009 1174.31 680.542 1168.79 680.826 1167.24 680.897 1165.29 682.117 1165 686.5 1166.53 686.286 1172.02 684.261 1175.43 682.603 1178.2 677.048 1178.45 676.905 1181.8 679.037 1183.37 689.247 1181.65 687.873 1187.89 683.455 1192.11 676.692 1186.41 672.18 1185.93 665.855 1188.79 660.205 1192.73 655.751 1198.34Z" fill="#FFFFFF" fill-rule="evenodd"/>
		<path d="M636.011 1193.11C635.233 1190.39 637.64 1189.26 638.714 1187.71 635.776 1187.93 631.763 1189.47 629.131 1186.83 628.246 1181.86 632.034 1181.69 634.89 1179.27 639.01 1175.86 640.839 1170.91 645.583 1169.01 646.622 1167.26 645.123 1163.96 646.87 1164.24 649.407 1162.12 651.673 1168.6 653.243 1170.86 658.483 1166.21 663.062 1160.54 668.987 1157 669.246 1164.56 665.682 1167.92 661.776 1172.91 659.026 1176.33 656.606 1180.44 653.644 1183.65 652.074 1185.38 649.053 1186.85 646.988 1188.79 643.612 1191.88 641.842 1195.78 636.011 1193.11ZM640.685 1181.71C643.494 1181.62 647.66 1180.59 647.2 1177.48 644.757 1178.09 640.591 1179.16 640.685 1181.71Z" fill="#FFFFFF" fill-rule="evenodd"/>
		<path d="M611 1110.2 584.382 1124 579.675 1114.82C576.828 1109.17 577.602 1105.05 582.058 1102.39 584.906 1101.07 587.539 1101.51 590.053 1103.78L590.184 1103.71C589.362 1099.69 590.744 1096.66 594.331 1094.73 598.787 1092.73 602.767 1094.84 606.282 1101.02L611 1110.2ZM590.268 1109.17C589.088 1106.9 587.504 1106.27 585.466 1107.32 583.393 1108.4 582.904 1110.07 584.084 1112.35L586.157 1116.47 592.365 1113.27 590.268 1109.17ZM601.754 1103.19C600.479 1100.18 598.608 1099.39 596.166 1100.77 593.532 1102.02 593.044 1104.02 594.712 1106.83L596.809 1110.9 603.863 1107.28 601.754 1103.19Z" fill="#FFFFFF" fill-rule="evenodd"/>
		<path d="M571.805 1099 565 1082.27 569.726 1080.44 574.318 1091.77 580.869 1089.24 576.614 1078.71 581.328 1076.91 585.618 1087.45 593.051 1084.54 588.301 1072.79 593.039 1071 600 1088.13 571.805 1099Z" fill="#FFFFFF" fill-rule="evenodd"/>
		<path d="M590.16 1060 592 1065.79 562.816 1075 561 1069.28 590.16 1060Z" fill="#FFFFFF" fill-rule="evenodd"/>
		<path d="M556 1047.2 574.874 1042.46C581.142 1040.97 585.04 1043.1 586.601 1048.86 588.023 1054.43 585.652 1058.1 579.407 1060L578.054 1054.31C581.512 1053.47 582.993 1051.98 582.472 1049.88 582.044 1048.02 580.055 1047.35 576.528 1047.91 576.32 1047.98 576.181 1048.02 576.065 1048.04L557.318 1052.77 556 1047.2Z" fill="#FFFFFF" fill-rule="evenodd"/>
		<path d="M582.958 1030 584 1035.32 553.994 1040 553 1034.72 582.958 1030Z" fill="#FFFFFF" fill-rule="evenodd"/>
		<path d="M580.568 1008.29 556.682 1021 556.849 1021.15 581.547 1018.96 582 1024.35 552.16 1027 551.42 1018.38 574.042 1006.1 573.863 1005.96 550.489 1008.04 550 1002.62 579.853 1000 580.568 1008.29Z" fill="#FFFFFF" fill-rule="evenodd"/>
		<path d="M568.652 982.518 563.635 982.367 564.017 971.608 579.07 972.095C579.655 974.036 579.918 975.988 579.834 977.998 580.014 979.532 580.038 981.565 579.954 984.017 579.153 992.162 573.933 996.136 564.292 995.996 554.471 995.509 549.382 991.198 549 983.029 549.275 974.71 552.68 970.724 559.155 971.015L558.952 977.01C555.595 976.941 553.874 978.661 553.743 982.181 553.683 987.05 557.267 989.676 564.495 989.989 571.639 990.14 575.378 987.793 575.617 982.913 575.665 981.461 575.51 979.776 575.128 977.87 575.247 977.975 575.247 977.882 575.163 977.591L568.82 977.371 568.652 982.518Z" fill="#FFFFFF" fill-rule="evenodd"/>
		<path d="M555 940.837 560.04 919 564.88 920.2 563.015 928.185 587 934.014 585.655 939.867 561.669 934.026 559.804 942 555 940.837Z" fill="#FFFFFF" fill-rule="evenodd"/>
		<path d="M561 913.291 566.989 896 571.824 897.626 567.755 909.345 574.497 911.593 578.251 900.688 583.074 902.338 579.308 913.219 586.95 915.766 591.153 903.629 596 905.243 589.841 923 561 913.291Z" fill="#FFFFFF" fill-rule="evenodd"/>
		<path d="M585.34 878.845C582.002 877.481 579.577 878.317 578.113 881.401 577.001 884.523 579.577 887.706 585.843 890.963 592.179 893.741 596.115 893.716 597.626 890.755 598.937 887.498 597.977 885.015 594.733 883.368L597.251 877.543C603.025 880.652 604.442 885.666 601.537 892.61 598.352 899.431 592.285 900.771 583.313 896.727 574.389 892.106 571.239 886.305 573.932 879.386 577.001 872.602 581.615 870.5 587.87 873.044L585.34 878.845Z" fill="#FFFFFF" fill-rule="evenodd"/>
		<path d="M607.787 879 582 863.769 584.917 858.878 595.126 864.885 600.399 856.029 590.225 850.046 593.214 845 619 860.255 616.059 865.158 604.774 858.486 599.454 867.401 610.728 874.085 607.787 879Z" fill="#FFFFFF" fill-rule="evenodd"/>
		<path d="M631.868 843.057 605.44 836.243 605.464 836.471 625.27 851.662 621.929 856 598 837.661 603.3 830.715 628.515 836.976 628.515 836.748 609.718 822.363 613.071 818 637 836.363 631.868 843.057Z" fill="#FFFFFF" fill-rule="evenodd"/>
		<path d="M628.711 823.496C621.812 816.053 621.161 809.224 626.772 802.984 632.603 797.141 639.213 797.718 646.519 804.763 653.187 811.99 653.791 818.663 648.226 824.795 642.267 830.806 635.762 830.373 628.711 823.496ZM632.975 819.035C637.97 824.145 642.07 825.023 645.195 821.741 648.284 818.53 647.286 814.334 642.291 809.212 637.203 804.042 633.091 803.068 630.001 806.302 626.876 809.609 627.863 813.865 632.975 819.035Z" fill="#FFFFFF" fill-rule="evenodd"/>
		<path d="M660.727 812 642 789.537 646.362 786 661.946 804.682 670.858 797.423 674 801.192 660.727 812Z" fill="#FFFFFF" fill-rule="evenodd"/>
		<path d="M667.562 787.256C662.136 778.65 662.907 771.97 669.889 767.25 677.04 762.895 683.612 764.867 689.557 773.121 694.85 781.445 694.042 787.902 687.121 792.621 679.801 797.071 673.278 795.275 667.562 787.256ZM672.795 783.875C676.823 789.839 680.814 791.553 684.685 789.041 688.496 786.587 688.375 782.384 684.347 776.467 680.247 770.409 676.317 768.636 672.494 771.09 668.611 773.602 668.72 777.852 672.795 783.875Z" fill="#FFFFFF" fill-rule="evenodd"/>
		<path d="M707.63 768.108 705.359 763.638 715.282 758.755 722 772.117C720.518 773.56 718.856 774.754 717.039 775.653 715.7 776.528 713.906 777.533 711.611 778.68 703.877 781.885 697.792 779.248 693.333 770.84 689.125 762.042 690.607 755.479 697.804 751.234 705.478 747.473 710.703 748.455 713.488 754.225L707.965 757.004C706.483 754.036 704.08 753.339 700.828 754.935 696.393 757.253 695.724 761.64 698.892 768.108 702.155 774.376 706.053 776.457 710.607 774.352 711.922 773.69 713.357 772.767 714.923 771.49 714.899 771.632 714.97 771.55 715.186 771.348L712.353 765.767 707.63 768.108Z" fill="#FFFFFF" fill-rule="evenodd"/>
		<path d="M730.425 758.951 715 743.244 721.381 740.875 731.223 751.808 731.833 737.002 737.299 735 735.704 756.973 739 766.01 733.686 768 730.425 758.951Z" fill="#FFFFFF" fill-rule="evenodd"/>
		<path d="M770 758 775.205 727.044 782.041 726 796 754.036 790.2 754.902 787.222 749.015 776.61 750.665 775.526 757.158 770 758ZM785.007 744.315 779.433 732.267 779.278 732.291 777.289 745.466 785.007 744.315Z" fill="#FFFFFF" fill-rule="evenodd"/>
		<path d="M814.471 752.488 802.848 728.529 802.727 728.681 803.564 752.837 798.019 753 797 723.78 805.833 723.524 817.128 746.225 817.261 746.085 816.473 723.174 821.993 723 823 752.209 814.471 752.488Z" fill="#FFFFFF" fill-rule="evenodd"/>
		<path d="M829.646 723 839.148 723.783C848.415 724.663 852.686 730.109 851.911 740.098 850.963 749.979 845.88 754.631 836.563 753.932L827 753.149 829.646 723ZM833.351 748.581 836.539 748.835C842.04 749.509 845.105 746.437 845.548 739.568 846.262 732.628 843.837 729.025 838.262 728.772L835.086 728.507 833.351 748.581Z" fill="#FFFFFF" fill-rule="evenodd"/>
		<path d="M876 759.514 884.102 731 893.669 733.872C899.497 735.597 901.863 738.976 900.721 743.975 899.786 746.917 897.697 748.536 894.443 748.796L894.419 748.962C897.789 751.065 898.955 754.102 897.905 757.99 896.324 762.551 892.204 763.981 885.556 762.35L876 759.514ZM887.045 757.6C889.999 758.699 891.799 757.907 892.469 755.213 893.346 752.471 892.238 750.77 889.191 750.072L884.956 748.796 882.786 756.335 887.045 757.6ZM890.553 745.298C892.931 745.984 894.408 745.298 895.031 743.1 895.654 740.855 894.823 739.39 892.446 738.669L888.21 737.417 886.318 744.046 890.553 745.298Z" fill="#FFFFFF" fill-rule="evenodd"/>
		<path d="M933 748.222 925.804 765.702C922.679 772.504 917.601 774.574 910.606 771.817 903.599 768.615 901.445 763.499 904.096 756.504L911.281 739 916.678 741.299 910.429 756.54C908.973 759.803 908.381 762.198 908.724 763.776 909.032 765.533 910.216 766.857 912.287 767.748 914.37 768.627 916.086 768.543 917.471 767.495 918.785 766.593 920.063 764.522 921.365 761.151L927.579 745.946 933 748.222Z" fill="#FFFFFF" fill-rule="evenodd"/>
		<path d="M948.917 766.565C950.256 763.888 949.727 761.83 947.284 760.497 944.722 759.272 942.831 759.677 941.633 761.711 940.341 763.603 941.128 765.613 943.888 767.814 943.982 767.838 944.182 768.04 944.464 768.314 949.245 772.668 950.643 776.558 948.599 780.116 945.509 785.493 940.634 786.433 933.95 782.923 927.865 779.485 926.455 774.928 929.686 769.23L934.761 772.097C933.081 775.095 933.539 777.463 936.029 779.104 939.143 780.71 941.304 780.484 942.561 778.355 943.559 776.582 942.772 774.548 940.176 772.168 939.8 771.871 939.554 771.609 939.448 771.407 935.007 767.207 933.75 763.329 935.677 759.843 938.86 754.656 943.689 753.633 950.15 756.786 955.048 759.891 956.247 764.091 953.698 769.325L948.917 766.565Z" fill="#FFFFFF" fill-rule="evenodd"/>
		<path d="M952.82 794 948 790.773 964.169 766 969 769.215 952.82 794Z" fill="#FFFFFF" fill-rule="evenodd"/>
		<path d="M969.45 806.779 976.398 780.466 976.165 780.502 961.208 800.093 957 796.695 975.127 773 981.784 778.438 975.419 803.525 975.663 803.49 989.816 784.932 994 788.317 975.92 812 969.45 806.779Z" fill="#FFFFFF" fill-rule="evenodd"/>
		<path d="M999.992 794 1013 806.617 1009.47 810.159 1000.65 801.579 995.779 806.487 1003.99 814.419 1000.46 817.95 992.259 810.018 986.733 815.608 995.839 824.458 992.318 828 979 815.066 999.992 794Z" fill="#FFFFFF" fill-rule="evenodd"/>
		<path d="M1020.95 828.748C1023.2 826.687 1023.42 824.552 1021.61 822.345 1019.64 820.223 1017.74 819.905 1015.87 821.393 1014.05 822.723 1014.01 824.93 1015.84 828.077 1015.89 828.15 1016.02 828.358 1016.2 828.748 1019.14 834.7 1019.06 838.981 1015.87 841.554 1011.03 845.578 1006.12 844.627 1001.12 838.773 996.686 833.224 996.969 828.333 1002.03 824.065L1005.76 828.699C1003.12 830.98 1002.7 833.358 1004.45 835.907 1006.76 838.59 1008.89 839.176 1010.84 837.663 1012.42 836.297 1012.39 834.004 1010.78 830.858 1010.55 830.382 1010.44 830.041 1010.4 829.797 1007.77 824.113 1007.97 819.966 1011 817.344 1015.88 813.539 1020.75 814.368 1025.65 819.82 1029.14 824.65 1028.74 829.089 1024.49 833.126L1020.95 828.748Z" fill="#FFFFFF" fill-rule="evenodd"/>
		<path d="M1036.83 850.536C1039.2 848.838 1039.63 846.801 1038.11 844.46 1036.39 842.247 1034.52 841.779 1032.55 842.996 1030.61 844.05 1030.4 846.169 1031.86 849.365 1031.9 849.447 1031.99 849.681 1032.13 850.055 1034.44 856.003 1033.89 860.065 1030.51 862.207 1025.41 865.591 1020.68 864.174 1016.39 858.051 1012.55 852.268 1013.34 847.632 1018.71 844.144L1021.94 848.955C1019.13 850.828 1018.44 853.064 1019.94 855.675 1021.94 858.52 1023.93 859.257 1026.01 857.981 1027.67 856.846 1027.87 854.715 1026.62 851.507 1026.47 851.039 1026.34 850.711 1026.34 850.489 1024.33 844.776 1024.92 840.819 1028.17 838.653 1033.3 835.539 1038.02 836.826 1042.29 842.505 1045.21 847.492 1044.39 851.695 1039.83 855.125L1036.83 850.536Z" fill="#FFFFFF" fill-rule="evenodd"/>
		<path d="M1072 901.917 1054.42 908.993C1047.35 911.506 1042.26 909.315 1039.18 902.442 1036.43 895.151 1038.49 890.042 1045.4 887.063L1062.97 880 1065.22 885.455 1049.92 891.59C1046.51 892.853 1044.41 894.127 1043.53 895.449 1042.48 896.914 1042.4 898.689 1043.27 900.798 1044.12 902.87 1045.44 904.049 1047.18 904.288 1048.74 904.633 1051.16 904.049 1054.44 902.632L1069.76 896.486 1072 901.917Z" fill="#FFFFFF" fill-rule="evenodd"/>
		<path d="M1050.19 933.077 1071.29 916.622 1071.08 916.516 1047.43 922.892 1046 917.735 1074.61 910 1076.87 918.227 1056.97 934.097 1057.15 934.191 1079.58 928.143 1081 933.3 1052.38 941 1050.19 933.077Z" fill="#FFFFFF" fill-rule="evenodd"/>
		<path d="M1054.03 952 1053 946.306 1081.98 941 1083 946.67 1054.03 952Z" fill="#FFFFFF" fill-rule="evenodd"/>
		<path d="M1084.35 951 1085 957.255 1062.52 966.631 1062.53 966.737 1086.45 971.336 1087 977 1056.61 970.166 1056 963.888 1084.35 951Z" fill="#FFFFFF" fill-rule="evenodd"/>
		<path d="M1087 983.06 1086.93 1001.6 1081.92 1001.58 1081.96 989.019 1075.01 989.006 1074.93 1000.67 1069.93 1000.64 1069.98 989.019 1062.04 988.958 1062.01 1002 1057 1001.98 1057.07 983 1087 983.06Z" fill="#FFFFFF" fill-rule="evenodd"/>
		<path d="M1056.63 1011.75 1057.26 1006 1087 1009.05 1085.81 1020.49C1085.05 1026.57 1082.15 1029.4 1077.11 1028.95 1073.25 1028.47 1071.06 1026.36 1070.45 1022.71L1070.29 1022.68C1069.88 1025.68 1067.51 1027.03 1063.22 1026.8 1062.77 1026.84 1062.43 1026.88 1062.21 1026.84 1058.63 1026.75 1056.25 1027.01 1055 1027.54L1055.63 1021.35C1058.32 1021.04 1061 1020.98 1063.78 1021.17 1066.4 1021.2 1067.8 1020.55 1067.9 1019.11L1068.56 1013.03 1056.63 1011.75ZM1073.53 1013.5 1073.01 1018.28C1072.75 1020.98 1073.99 1022.48 1076.78 1022.76 1079.38 1023.04 1080.72 1021.81 1080.9 1019.11L1081.41 1014.32 1073.53 1013.5Z" fill="#FFFFFF" fill-rule="evenodd"/>
		<path d="M1072.13 1049.32C1075.07 1049.82 1076.79 1048.72 1077.38 1045.94 1077.78 1043.07 1076.79 1041.34 1074.56 1040.75 1072.41 1040.12 1070.72 1041.45 1069.48 1044.81 1069.45 1044.9 1069.37 1045.12 1069.19 1045.5 1066.52 1051.48 1063.26 1054.02 1059.36 1053.09 1053.33 1051.7 1051.03 1047.17 1052.37 1039.59 1053.81 1032.65 1057.67 1029.92 1063.98 1031.38L1062.77 1037.14C1059.46 1036.41 1057.38 1037.57 1056.57 1040.48 1055.96 1043.98 1056.82 1046.06 1059.19 1046.67 1061.15 1047.08 1062.85 1045.7 1064.3 1042.46 1064.49 1041.99 1064.68 1041.7 1064.8 1041.52 1067.48 1035.95 1070.74 1033.58 1074.57 1034.39 1080.4 1035.99 1082.81 1040.36 1081.76 1047.64 1080.23 1053.34 1076.65 1055.71 1071.01 1054.82L1072.13 1049.32Z" fill="#FFFFFF" fill-rule="evenodd"/>
		<path d="M1047 1060.68 1048.61 1055 1077 1063.34 1075.38 1069 1047 1060.68Z" fill="#FFFFFF" fill-rule="evenodd"/>
		<path d="M1074 1073.87 1066.35 1095 1061.62 1093.25 1064.43 1085.48 1041 1076.66 1043.02 1071 1066.47 1079.83 1069.27 1072.07 1074 1073.87Z" fill="#FFFFFF" fill-rule="evenodd"/>
		<path d="M1043.08 1098.17 1065 1098.7 1062.03 1104.79 1047.43 1103.82 1057.14 1114.8 1054.61 1120 1040.61 1103.24 1032 1099.09 1034.5 1094 1043.08 1098.17Z" fill="#FFFFFF" fill-rule="evenodd"/>
		<path d="M696.481 1160C696.328 1160.03 696.164 1160.06 696 1160.09 700.993 1163.62 706.151 1166.92 711.461 1170 711.649 1169.97 711.812 1169.92 712 1169.89 706.679 1166.8 701.497 1163.52 696.481 1160Z" fill="#FFFFFF" fill-rule="evenodd"/>
		<path d="M670.39 1138C670.256 1138.04 670.122 1138.06 670 1138.09 672.74 1140.86 675.7 1143.38 678.574 1146 678.72 1145.98 678.854 1145.95 679 1145.93 676.102 1143.31 673.142 1140.75 670.39 1138Z" fill="#FFFFFF" fill-rule="evenodd"/>
		<path d="M612 1030C619.372 1066.66 636.225 1099.8 659.704 1127 659.81 1126.98 659.893 1126.94 660 1126.92 636.45 1099.77 619.479 1066.67 612 1030Z" fill="#FFFFFF" fill-rule="evenodd"/>
		<path d="M819.307 1199.49C786.859 1199.49 756.238 1192 728.747 1179 728.498 1179.04 728.249 1179.07 728 1179.11 755.68 1192.35 786.587 1200 819.354 1200 847.924 1200 875.13 1194.28 900 1184.05 899.276 1184.14 898.565 1184.25 897.854 1184.33 873.541 1194.01 847.083 1199.49 819.307 1199.49Z" fill="#FFFFFF" fill-rule="evenodd"/>
		<path d="M993.543 1108.68C1009.57 1085.7 1021.2 1059.42 1027 1031 1021.09 1059.58 1009.26 1085.95 993 1109 993.189 1108.89 993.366 1108.78 993.543 1108.68Z" fill="#FFFFFF" fill-rule="evenodd"/>
		<path d="M822.943 1170.15C822.943 1170.15 890.87 1181.81 946 1157.96 882.097 1173.92 802.868 1158.72 802.868 1158.72 759.775 1152.29 723.497 1155.17 697 1160.03 702.081 1163.64 707.328 1166.98 712.73 1170.13 740.9 1164.78 777.606 1162.73 822.943 1170.15Z" fill="#FFFFFF" fill-rule="evenodd"/>
		<path d="M862.494 1079C861.852 1079.07 860 1080.09 860 1089.08 860 1098.2 861.949 1099 862.543 1099 863.051 1099 865 1098.16 865 1089.08 865 1080.09 863.136 1079.07 862.494 1079Z" fill="#FFFFFF" fill-rule="evenodd"/>
		<path d="M808.151 1079C807.192 1079 805 1079.06 805 1083.2 805 1087 807.233 1087 808.178 1087 808.849 1086.99 810.863 1086.91 811 1083.14 810.822 1079.17 808.904 1079.06 808.151 1079Z" fill="#FFFFFF" fill-rule="evenodd"/>
		<path d="M812.331 1146.64C812.331 1146.64 917.456 1168.66 975 1130.73 902.518 1159.6 812.224 1137.46 812.224 1137.46L812.058 1137.42C755.238 1125.5 707.49 1129.57 671 1138.21 673.684 1140.9 676.569 1143.38 679.383 1145.91 713.808 1140.74 762.149 1137.37 812.331 1146.64Z" fill="#FFFFFF" fill-rule="evenodd"/>
		<path d="M820.759 1182.67C782.133 1175.68 752.076 1175.93 729 1179.25 756.473 1192.42 787.076 1200 819.503 1200 847.261 1200 873.703 1194.45 898 1184.64 856.518 1190.03 820.759 1182.67 820.759 1182.67Z" fill="#FFFFFF" fill-rule="evenodd"/>
		<path d="M819.965 776C702.894 776 608 870.893 608 987.983 608 1002.65 609.497 1016.97 612.336 1030.81 609.58 1017.16 608.107 1003.03 608.107 988.565 608.107 871.57 703.001 776.724 820.024 776.724 937.011 776.724 1031.88 871.57 1031.88 988.565 1031.88 1003.1 1030.4 1017.29 1027.62 1031 1030.48 1017.1 1032 1002.71 1032 987.971 1032 870.893 937.059 776 819.965 776Z" fill="#FFFFFF" fill-rule="evenodd"/>
		<path d="M819.524 776C702.718 776 608 870.903 608 987.969 608 1002.44 609.47 1016.57 612.221 1030.24 619.69 1066.75 636.668 1099.71 660.238 1126.75 699.588 1116.26 753.213 1111.04 819.477 1125.61 819.477 1125.61 922.28 1150.43 992.622 1109.11 1008.94 1085.85 1020.8 1059.26 1026.74 1030.43 1029.52 1016.72 1031 1002.5 1031 987.969 1030.99 870.903 936.294 776 819.524 776ZM809.304 792.162C809.304 792.162 812.256 788.68 815.505 792.209L893.743 872.887 876.694 889.762 812.138 823.214 760.955 874.135 808.355 923.274 825.179 906.613 798.906 879.554 815.979 862.691 858.945 906.993 807.952 957.416 726.845 873.339 809.304 792.162ZM788.876 1104.36 780.826 1104.36 780.826 1082.15C779.32 1083.2 777.672 1084.1 775.941 1084.84L774.459 1085.46 774.459 1077.35 775.04 1077.08C777.387 1075.9 779.616 1074.49 781.691 1072.85L781.987 1072.64 788.876 1072.64 788.876 1104.36ZM816.145 1100.19C814.319 1103.19 811.438 1104.7 807.502 1104.7L807.122 1104.7C799.297 1104.7 797.543 1099.96 797.472 1095.97L797.472 1094.86 805.344 1094.86 805.498 1095.74C805.949 1098.55 807.016 1098.55 807.336 1098.55 808.071 1098.55 808.592 1098.34 809.02 1097.87 809.672 1097.18 810.395 1095.68 810.442 1092.19 809.114 1092.91 807.668 1093.21 806.079 1093.09 800.684 1092.5 797.59 1089.07 797.045 1083.13L797.045 1083.01 797.045 1082.94C797.483 1076.2 801.112 1072.43 807.585 1071.94L807.905 1071.91C810.893 1071.91 813.288 1072.81 815.031 1074.56 817.354 1076.94 818.492 1080.84 818.433 1086.21 818.528 1092.88 817.793 1097.44 816.145 1100.19ZM836.537 1104.7 836.49 1104.7 836.443 1104.7C828.487 1104.55 826.602 1099.87 826.448 1095.97L826.388 1094.86 834.19 1094.86 834.297 1095.8C834.593 1098.12 835.696 1098.49 836.608 1098.55 837.32 1098.53 839.24 1098.3 839.489 1093.26 839.264 1089.69 837.853 1089.09 836.763 1088.97 836.027 1089.03 835.032 1089.41 834.439 1091.52L834.202 1092.33 826.543 1092.08 827.396 1072.62 845.856 1072.62 845.856 1078.87 834.439 1078.87 834.261 1083.45C835.399 1082.81 836.703 1082.47 838.138 1082.47 842.299 1082.65 847.255 1084.74 847.385 1093.75 846.828 1100.48 843.07 1104.2 836.537 1104.7ZM862.395 1104.7 862.36 1104.7 862.336 1104.7C855.732 1104.55 852.246 1099.13 852.057 1088.59 852.246 1077.64 855.732 1072.06 862.336 1071.95 869.319 1072.07 872.923 1077.64 873.149 1088.56 873.042 1099.13 869.414 1104.55 862.395 1104.7ZM1010.12 994.22 918.534 1086.32 850.089 1017.27 906.713 961.195 940.112 995.871 922.363 1013.28 906.298 996.561 885.242 1017.42 918.569 1051.04 978.217 991.035 908.397 924.569 738.18 1093.64 633.68 987.089 628.049 981.373C628.049 981.373 624.788 978.474 628.12 975.17L633.763 969.549 714.716 889.287 791.508 968.515 739.33 1019.77 699.161 978.462 716.803 960.957 739.673 984.427 756.509 968.147 714.361 924.581 659.894 978.592 738.523 1058.31 908.622 889.394 1010.19 988.218C1010.19 988.218 1013.64 990.975 1010.12 994.22Z" fill="#FFFFFF" fill-rule="evenodd"/>
		<path d="M978.237 1128.1C980.288 1125.84 982.044 1123.33 984 1121 981.726 1123.71 979.404 1126.4 977 1129 977.424 1128.71 977.825 1128.41 978.237 1128.1Z" fill="#FFFFFF" fill-rule="evenodd"/>
		<path d="M987 1117C989.325 1114.33 991.841 1111.8 994 1109 993.797 1109.1 993.607 1109.22 993.416 1109.31 991.358 1111.94 989.185 1114.47 987 1117Z" fill="#FFFFFF" fill-rule="evenodd"/>
		<path d="M660.306 1127C660.196 1127.02 660.11 1127.06 660 1127.08 663.438 1130.81 666.889 1134.53 670.608 1138 670.731 1137.98 670.865 1137.95 671 1137.92 667.268 1134.44 663.781 1130.74 660.306 1127Z" fill="#FFFFFF" fill-rule="evenodd"/>
		<path d="M987 1117C986.005 1118.35 985.01 1119.69 984 1121 985.01 1119.68 986.005 1118.35 987 1117Z" fill="#FFFFFF" fill-rule="evenodd"/>
		<path d="M679.416 1146C679.273 1146.02 679.143 1146.05 679 1146.07 684.588 1151.01 690.414 1155.66 696.513 1160 696.679 1159.96 696.834 1159.94 697 1159.91 690.877 1155.59 685.04 1150.94 679.416 1146Z" fill="#FFFFFF" fill-rule="evenodd"/>
		<path d="M946 1158C946.532 1157.76 947.052 1157.52 947.572 1157.28 958.232 1149.12 968.065 1140 977 1130 976.787 1130.08 976.575 1130.18 976.374 1130.25 967.155 1140.48 957.015 1149.75 946 1158Z" fill="#FFFFFF" fill-rule="evenodd"/>
		<path d="M976 1130C976.274 1129.92 976.548 1129.83 976.807 1129.77 977.523 1129.17 978.285 1128.6 979 1128 978.468 1128.29 977.949 1128.6 977.417 1128.88 976.944 1129.26 976.472 1129.62 976 1130Z" fill="#FFFFFF" fill-rule="evenodd"/>
		<path d="M977 1129C976.344 1129.69 975.672 1130.34 975 1131 975.418 1130.74 975.828 1130.49 976.237 1130.23 976.492 1129.82 976.746 1129.41 977 1129Z" fill="#FFFFFF" fill-rule="evenodd"/>
		<path d="M712.536 1170C712.35 1170.04 712.186 1170.08 712 1170.12 717.282 1173.33 722.692 1176.28 728.266 1179 728.51 1178.96 728.755 1178.93 729 1178.89 723.357 1176.17 717.877 1173.22 712.536 1170Z" fill="#FFFFFF" fill-rule="evenodd"/>
		<path d="M898 1184C898.722 1183.91 899.456 1183.8 900.179 1183.72 917.005 1177.07 932.641 1168.32 947 1158 946.699 1158.08 946.374 1158.14 946.073 1158.22 931.353 1168.65 915.26 1177.39 898 1184Z" fill="#FFFFFF" fill-rule="evenodd"/>
		<path d="M946 1158C946.177 1157.9 946.369 1157.82 946.546 1157.72 946.695 1157.48 946.851 1157.24 947 1157 946.688 1157.3 946.376 1157.6 946.057 1157.9 946.042 1157.93 946.021 1157.97 946 1158Z" fill="#FFFFFF" fill-rule="evenodd"/>
		<path d="M946.572 1158.7C946.714 1158.5 946.858 1158.2 947.001 1158 946.668 1158.3 946.285 1158.7 946 1159 946.143 1158.9 946.381 1158.8 946.572 1158.7Z" fill="#FFFFFF" fill-rule="evenodd"/>
	</g>
</svg>