<svg width="1173" height="429" xmlns="http://www.w3.org/2000/svg" xmlns:xlink="http://www.w3.org/1999/xlink" overflow="hidden">
	<defs>
		<clipPath id="clip0">
			<rect x="1679" y="732" width="1173" height="429"/>
		</clipPath>
	</defs>
	<g clip-path="url(#clip0)" transform="translate(-1679 -732)">
		<path d="M1931.55 879.823C1938.18 879.894 1940.39 872.508 1947.44 868.94 1951.05 866.978 1956.77 867.549 1961.35 864.944 1973.02 858.248 1973.73 845.106 1989.08 843.191 1999.61 841.835 2009.17 846.735 2019.83 850.077 2021.18 863.541 2014.26 874.055 2007.97 881.833 2002.4 888.469 1993.3 897.997 1984.12 901.588 1975.67 904.811 1965.35 903.254 1956.32 906.5 1952.36 907.975 1948.45 912.197 1943.44 914.386 1937.12 917.324 1929.74 917.478 1925.58 920.44 1914.19 928.492 1909.93 959.213 1905.77 974.853 1897.09 1007.02 1885.34 1043.06 1894.82 1078.81 1924.98 1079.91 1946.67 1067.15 1966.24 1055.1 1971.93 1051.58 1981.9 1043.59 1986.09 1043.18 1996.78 1042.15 2008.45 1053.64 2008.92 1062.01 2009.66 1074.91 1989.07 1097.26 1980.2 1100.57 1974.24 1102.84 1965.46 1101.82 1956.31 1103.6 1925.58 1109.64 1889.85 1139.57 1864.1 1113.5 1861.46 1107.81 1862.71 1102.49 1859.11 1095.69 1856.35 1090.3 1850.34 1087.76 1849.22 1082.74 1848.27 1078.46 1850.7 1072.45 1851.18 1066 1852.06 1055.19 1850.97 1041.6 1852.17 1031.32 1853.28 1022.31 1856.66 1013.73 1857.16 1005.54 1857.47 1000.22 1855.92 994.56 1856.17 989.696 1856.7 977.065 1862.33 963.816 1864.11 950.114 1869.28 910.08 1871.04 867.228 1880.98 830.25 1884.19 818.25 1892.47 801.361 1887.91 785.721 1885.93 779.025 1878.23 774.458 1878.01 768.892 1877.71 763.445 1882.71 755 1888.88 755 1895.2 754.976 1898.27 758.021 1903.81 760.959 1924.91 772.174 1941.47 783.806 1938.5 819.415 1936.48 843.346 1916.27 862.946 1931.55 879.823Z" fill="#FFFFFF" fill-rule="evenodd"/>
		<path d="M1769.41 778.005C1780.78 777.756 1780.55 787.199 1788.25 799.668 1796.69 813.358 1802.49 823.062 1804.08 843.171 1805.18 856.268 1803.48 870.73 1804.08 884.598 1804.51 893.567 1806.98 902.643 1807.08 910.318 1807.09 915.289 1805.05 920.545 1805.07 925.088 1805.16 934.295 1810.98 946.834 1807.08 954.712 1807.39 958.745 1811.11 959.267 1812.02 962.66 1812.92 967.94 1808.46 974.275 1809.05 981.44 1809.42 985.996 1812.82 989.104 1813 993.268 1813.14 998.239 1809.66 1002.97 1809.05 1008.05 1808.3 1014.3 1810.23 1021.73 1809.05 1029.82 1807.59 1040.43 1802.66 1051.42 1802.12 1061.44 1801.86 1066.56 1803.19 1072.18 1803.12 1077.19 1802.62 1110.75 1777.48 1146.14 1751.65 1127.6 1748.51 1117.75 1753.82 1105.26 1750.61 1095.03 1740.71 1097.63 1738.33 1109.38 1731.79 1116.72 1719.02 1131.03 1688.6 1147.13 1680.33 1116.72 1675.06 1097.44 1687.02 1081.71 1689.23 1061.44 1690.81 1047.02 1692.25 1028.25 1691.22 1014.05 1690.81 1008.37 1688.93 1003.33 1689.23 998.227 1690.34 977.608 1702.23 969.506 1698.14 953.774 1694.44 939.515 1679.4 940.001 1681.3 922.158 1706.09 906.594 1730.78 925.955 1749.61 933.998 1758.84 919.18 1753.46 901.243 1753.6 882.653 1753.66 871.003 1758.33 857.134 1760.51 844.156 1762.69 830.975 1766.34 816.217 1766.46 804.626 1766.55 793.985 1760.86 784.684 1769.41 778.005ZM1727.89 1053.52C1740.72 1044.61 1767.29 1021.34 1751.65 996.175 1737.12 1008.74 1726.9 1025.56 1727.89 1053.52Z" fill="#FFFFFF" fill-rule="evenodd"/>
		<path d="M2292.92 1019.25C2313.44 1020.81 2386.17 978.688 2392.8 1021.19 2395.37 1037.87 2372.62 1060.92 2356.18 1061.83 2344.78 1062.45 2334.23 1057.25 2323.6 1059.84 2318.83 1060.93 2315.95 1065.36 2311.72 1066.75 2304.28 1069.19 2294.55 1065.98 2290.03 1074.69 2286.76 1075.28 2285.41 1074 2283.1 1073.7 2277.14 1078.36 2269.14 1080.84 2263.26 1085.51 2249.82 1085.93 2236.44 1086.43 2230.65 1094.46 2209.48 1095.45 2192.89 1102.74 2173.38 1096.5 2168.38 1094.9 2164.95 1090.66 2159.53 1088.57 2146.46 1083.46 2131.11 1085.44 2121 1075.67 2124.65 1055.63 2144.01 1059.84 2165.46 1054.92 2181.58 1051.12 2192.91 1039.77 2214.82 1040.97 2239.35 1001.22 2275.48 973.086 2286.03 919.223 2274.04 917.332 2261.91 917.582 2250.41 922.197 2246.74 923.707 2244.33 927.988 2240.56 929.094 2235.84 930.498 2230.39 927.572 2223.74 927.132 2217.02 926.68 2210.37 929.427 2205.89 929.094 2195.26 928.405 2179.21 919.675 2181.24 905.404 2191.45 895.129 2207.81 900.397 2221.79 896.46 2225.83 895.331 2228.45 890.633 2233.66 889.503 2236.53 888.92 2240.56 890.169 2243.55 889.503 2249.24 888.219 2252.43 883.438 2258.31 880.595 2261.81 879.026 2268.09 877.753 2273.17 875.648 2286.15 870.391 2299.79 865.206 2312.7 859.866 2318.82 854.122 2325.47 848.829 2333.46 845 2357.05 850.447 2396.61 870.796 2378.95 896.46 2372.7 905.463 2359.91 912.028 2352.26 921.222 2344.08 930.95 2337.59 941.38 2330.45 950.93 2326.14 956.769 2323.18 960.896 2320.6 966.819 2318.19 972.384 2317.66 978.819 2314.69 985.598 2309.05 998.418 2297.16 1007.3 2292.92 1019.25Z" fill="#FFFFFF" fill-rule="evenodd"/>
		<path d="M1940.76 1022.09C1945.19 1020.19 1951.09 1019.79 1957.82 1020.09 1970.28 1027.61 1988.15 1040.95 1991.02 1058.49 1992.94 1070.17 1992.27 1089.43 1987.01 1095.96 1979.75 1104.89 1963.43 1103.09 1955.8 1095.96 1941.44 1082.43 1928.81 1044.99 1940.76 1022.09Z" fill="#FFFFFF" fill-rule="evenodd"/>
		<path d="M2696.79 810.703C2694.05 809.224 2693.09 805.817 2690.83 803.794 2694.94 790.968 2710.32 784.473 2705.83 766.371 2698.05 759.106 2683.23 754.078 2687.89 737.798 2711.08 726.984 2752.59 730.782 2756.63 753.546 2760.62 776.108 2731.3 783.479 2719.73 793.926 2712.04 800.966 2708.77 813.046 2696.79 810.703Z" fill="#FFFFFF" fill-rule="evenodd"/>
		<path d="M2755.39 862.94C2763.22 864.378 2778.27 857.781 2791.97 860.016 2800.24 861.335 2804.95 866.138 2809.75 869.894 2811.21 879.167 2805.42 881.33 2803.81 887.714 2806.9 894.43 2811.16 889.378 2818.65 890.662 2829.43 892.6 2846.01 907.233 2847.35 920.405 2848.65 932.744 2844.29 946.855 2843.39 962.939 2841.32 999.173 2839.26 1042.06 2842.42 1079.66 2845.15 1113.27 2846.17 1146.34 2825.56 1160.83 2810.19 1162.66 2800.02 1148.87 2787.03 1146.02 2777.89 1144.01 2770.69 1145.52 2764.26 1141.08 2757.82 1136.61 2756.41 1129.6 2749.45 1124.18 2740.82 1119.99 2726.94 1116.9 2730.67 1103.49 2757.31 1104.4 2777.25 1119.57 2804.81 1113.38 2812.79 1104.95 2810.24 1076.31 2811.74 1059.93 2814.34 1032.03 2812.35 993.182 2813.74 961.952 2814.39 945.963 2818.87 932.221 2810.75 920.417 2772.38 922.806 2748.96 951.063 2716.81 967.896 2713.45 969.632 2709.27 969.941 2705.96 971.807 2694.36 978.393 2684.17 989.139 2669.28 997.58 2657.6 1004.26 2613.53 1027.89 2611 995.595 2658.8 975.16 2691.77 939.829 2742.49 922.343 2748.19 902.264 2774 902.348 2779.1 881.829 2742.25 884.801 2714.91 912.214 2686.16 927.276 2681.54 929.642 2671.51 932.828 2664.44 928.31 2661.82 898.651 2688.13 887.583 2708.88 875.802 2719.46 869.906 2729.95 863.439 2739.57 856.033 2759.91 840.365 2773.51 819.978 2795.93 811.514 2796.54 806.521 2802.21 806.557 2802.89 801.635 2801.33 797.534 2795.22 798.009 2793.94 793.671 2804.57 780.582 2826 778.264 2834.46 763 2851.64 763.642 2856.74 784.303 2847.35 796.666 2841.49 804.334 2829.64 811.134 2819.65 818.432 2809.14 826.005 2797.58 828.846 2787.03 834.231 2773.68 841.078 2765.42 856.64 2755.39 862.94Z" fill="#FFFFFF" fill-rule="evenodd"/>
		<path d="M2763 806.972C2761.77 812.608 2755.66 817.522 2751.15 820.755 2746.92 823.928 2740.05 828.155 2735.34 829.729 2730.99 830.949 2726.64 829.954 2722.49 831.624 2713.67 835.259 2704.9 846.721 2695.82 853.328 2684.92 861.308 2672.58 862.729 2664.3 869.123 2657.93 873.859 2655.64 883.095 2649.41 887.819 2643.95 891.987 2635.86 891.88 2629.66 894.722 2617.79 900.086 2609.5 909.535 2599.06 915.455 2596.44 915.455 2593.79 915.455 2591.17 915.455 2584.57 918.901 2579.04 923.506 2572.37 928.243 2566.68 932.209 2559.16 939.243 2551.7 938.994 2541.08 938.816 2525.45 922.003 2525.03 912.471 2524.06 892.994 2543.88 898.038 2558.58 891.75 2568.6 887.417 2569.92 880.762 2577.33 875.931 2604.34 878.596 2618.46 857.069 2641.54 853.304 2645.45 852.594 2649.67 854.121 2653.32 853.304 2659.78 851.836 2668.43 845.726 2676.1 841.416 2696.84 829.789 2729.85 819.357 2744.2 804 2751.2 804.308 2759.48 803.207 2763 806.972Z" fill="#FFFFFF" fill-rule="evenodd"/>
		<path d="M2776.76 961.646C2774.3 981.311 2758.64 987.819 2751.79 1003.14 2761.33 1011.14 2780.1 1011.25 2782.69 1024.93 2784.83 1036.09 2775.26 1043.96 2770.73 1053.58 2768.13 1054.98 2764.13 1054.98 2761.75 1056.5 2746.44 1078.28 2719.64 1088.58 2693.96 1100 2691.34 1098.02 2688.19 1096.54 2685.99 1094.09 2685.22 1090.03 2687.51 1089.03 2686.95 1085.14 2701.12 1077.27 2711.64 1065.57 2725.87 1055.56 2734.35 1049.59 2742.67 1043.64 2744.78 1030.86 2743.77 1026.9 2738.99 1026.66 2737.86 1022.92 2728.72 1025.4 2715.79 1030.94 2706.91 1024.93 2707.08 1003.96 2726.06 1001.68 2729.84 984.41 2713.64 985.455 2709.41 1006.94 2700.88 1018.99 2686.85 1019.12 2673.01 1019.04 2666 1012.04 2668.26 1000.28 2684.19 998.672 2694.94 993.269 2714.58 983.354 2728.15 963.891 2744.78 952.728 2758.34 947.266 2772.83 949.89 2776.76 961.646Z" fill="#FFFFFF" fill-rule="evenodd"/>
		<path d="M2610.02 1138C2598.17 1133.42 2592.46 1117.8 2594.36 1104.27 2595.37 1097.19 2603.68 1088.54 2608.07 1076.6 2614.24 1059.73 2610.6 1043.25 2619.83 1031 2634.43 1030.85 2639.78 1067.96 2637.49 1090.38 2636.14 1103.47 2627.45 1110.13 2621.78 1116.21 2623.11 1128.79 2615.07 1131.79 2610.02 1138Z" fill="#FFFFFF" fill-rule="evenodd"/>
	</g>
</svg>